<?xml version="1.0" encoding="UTF-8" standalone="no"?>
<!-- Created with Inkscape (http://www.inkscape.org/) -->

<svg
   xmlns:dc="http://purl.org/dc/elements/1.1/"
   xmlns:cc="http://creativecommons.org/ns#"
   xmlns:rdf="http://www.w3.org/1999/02/22-rdf-syntax-ns#"
   xmlns:svg="http://www.w3.org/2000/svg"
   xmlns="http://www.w3.org/2000/svg"
   xmlns:sodipodi="http://sodipodi.sourceforge.net/DTD/sodipodi-0.dtd"
   xmlns:inkscape="http://www.inkscape.org/namespaces/inkscape"
   width="99.999313"
   height="100"
   viewBox="0 0 26.458151 26.458332"
   version="1.1"
   id="svg8"
   inkscape:version="0.92.4 (5da689c313, 2019-01-14)"
   sodipodi:docname="spa.svg">
  <defs
     id="defs2" />
  <sodipodi:namedview
     id="base"
     pagecolor="#ffffff"
     bordercolor="#666666"
     borderopacity="1.0"
     inkscape:pageopacity="0.0"
     inkscape:pageshadow="2"
     inkscape:zoom="5.6"
     inkscape:cx="-109.495"
     inkscape:cy="28.52723"
     inkscape:document-units="mm"
     inkscape:current-layer="layer1"
     showgrid="false"
     inkscape:window-width="3200"
     inkscape:window-height="1284"
     inkscape:window-x="-9"
     inkscape:window-y="-9"
     inkscape:window-maximized="1"
     fit-margin-top="0"
     fit-margin-left="20"
     fit-margin-right="20"
     fit-margin-bottom="0"
     units="px" />
  <metadata
     id="metadata5">
    <rdf:RDF>
      <cc:Work
         rdf:about="">
        <dc:format>image/svg+xml</dc:format>
        <dc:type
           rdf:resource="http://purl.org/dc/dcmitype/StillImage" />
        <dc:title></dc:title>
      </cc:Work>
    </rdf:RDF>
  </metadata>
  <g
     inkscape:label="Livello 1"
     inkscape:groupmode="layer"
     id="layer1"
     transform="translate(-238.17556,-75.377737)">
    <path
       style="font-style:normal;font-weight:normal;font-size:126.46562195px;line-height:1.25;font-family:sans-serif;letter-spacing:0px;word-spacing:0px;fill:#fbffff;fill-opacity:1;stroke:none;stroke-width:0.18771045"
       d="m 242.90245,86.539659 c -0.35898,0 -0.68523,0.06155 -0.97872,0.184699 -0.29349,0.123143 -0.51665,0.304187 -0.66946,0.543084 -0.15281,0.236433 -0.22921,0.491314 -0.22921,0.76469 0,0.248749 0.0618,0.474101 0.18555,0.676055 0.12614,0.199491 0.31654,0.366974 0.57122,0.502431 0.19647,0.105902 0.53968,0.219203 1.02965,0.339883 0.48997,0.118217 0.8065,0.205646 0.94961,0.262291 0.22315,0.0862 0.38325,0.193315 0.48028,0.321383 0.097,0.125606 0.14552,0.273403 0.14552,0.44334 0,0.167471 -0.0509,0.322616 -0.1528,0.465457 -0.0994,0.140383 -0.25225,0.251216 -0.45843,0.332488 -0.20617,0.08127 -0.44388,0.121929 -0.71312,0.121929 -0.30319,0 -0.57607,-0.05296 -0.81863,-0.158865 -0.24255,-0.108369 -0.42205,-0.248759 -0.53847,-0.421161 -0.114,-0.174857 -0.1868,-0.397742 -0.21833,-0.668656 l -0.66581,0.05912 c 0.01,0.36204 0.10673,0.687137 0.29107,0.975289 0.18677,0.285687 0.44267,0.499945 0.7677,0.642794 0.32745,0.142838 0.73252,0.214271 1.21521,0.214271 0.38082,0 0.72284,-0.07024 1.02603,-0.210591 0.30563,-0.142849 0.53968,-0.341083 0.7022,-0.594754 0.16251,-0.256127 0.24376,-0.528289 0.24376,-0.816446 0,-0.290616 -0.074,-0.546747 -0.22195,-0.768403 -0.14796,-0.22412 -0.37718,-0.408851 -0.68765,-0.554159 -0.21345,-0.09851 -0.60758,-0.213034 -1.18244,-0.343565 -0.57244,-0.132994 -0.92659,-0.262294 -1.06242,-0.387899 -0.13826,-0.125605 -0.20737,-0.285683 -0.20737,-0.480249 0,-0.224119 0.097,-0.414975 0.29106,-0.572598 0.19648,-0.160085 0.50817,-0.240139 0.93506,-0.240139 0.40993,0 0.71917,0.08743 0.92776,0.262291 0.21103,0.174862 0.33474,0.433461 0.37113,0.775798 l 0.67672,-0.05173 c -0.0122,-0.317708 -0.0994,-0.602149 -0.26195,-0.85336 -0.16252,-0.25121 -0.39537,-0.440847 -0.69858,-0.568915 -0.30077,-0.130532 -0.64882,-0.195807 -1.04419,-0.195807 z m 15.87968,0.03267 -0.21765,0.158682 -1.58903,1.37515 h -1.65333 c -0.12307,0 -0.22216,0.09906 -0.22216,0.222129 v 2.022764 c 0,0.123072 0.0991,0.222159 0.22216,0.222159 h 1.60645 l 1.71454,1.566166 h 0.13902 c 0.14771,0 0.26665,-0.108641 0.26665,-0.243576 v -5.079898 c 0,-0.134931 -0.11894,-0.243576 -0.26665,-0.243576 z m -12.74342,0.05967 v 5.415816 h 0.70585 v -2.201774 h 1.36803 c 0.75436,0 1.27584,-0.15886 1.56449,-0.476568 0.28864,-0.32017 0.43297,-0.710537 0.43297,-1.17109 0,-0.268451 -0.0546,-0.514739 -0.16372,-0.738858 -0.10673,-0.22412 -0.24863,-0.397759 -0.4257,-0.520901 -0.17706,-0.125605 -0.39657,-0.210566 -0.65854,-0.254897 -0.18677,-0.03448 -0.45722,-0.05173 -0.81135,-0.05173 z m 5.88688,0 -2.04839,5.415816 h 0.74951 l 0.58576,-1.640252 h 2.23032 l 0.62218,1.640252 h 0.80405 l -2.183,-5.415816 z m 9.06111,0.09422 c -0.0623,-0.0022 -0.12156,0.02782 -0.14708,0.07716 -0.0465,0.0899 -0.0327,0.12395 0.17562,0.434933 0.14905,0.222453 0.31902,0.555649 0.41229,0.808227 0.073,0.197649 0.17274,0.588405 0.20078,0.786506 0.0278,0.195981 0.0276,0.88108 -1.8e-4,1.05524 -0.0973,0.609133 -0.30445,1.133528 -0.65096,1.647591 -0.0972,0.144185 -0.14478,0.237458 -0.1446,0.283706 1.3e-4,0.04632 0.0506,0.123406 0.0981,0.14975 h 2e-5 c 0.10115,0.05608 0.1789,-0.0056 0.3644,-0.287967 0.44513,-0.678208 0.66462,-1.371802 0.69045,-2.181869 0.0283,-0.887555 -0.18905,-1.656089 -0.68889,-2.435759 -0.15356,-0.239539 -0.2247,-0.323555 -0.28312,-0.334514 -0.009,-0.0017 -0.0179,-0.0027 -0.0268,-0.003 z m -8.69727,0.474695 c 0.0825,0.293079 0.2086,0.667448 0.37839,1.123075 l 0.55667,1.499868 h -1.80827 l 0.58579,-1.588536 c 0.12371,-0.342336 0.21951,-0.687145 0.28742,-1.034407 z m -5.54487,0.0702 h 1.36438 c 0.32017,0 0.53971,0.016 0.65857,0.04802 0.18434,0.05172 0.33228,0.158865 0.44386,0.321414 0.114,0.160085 0.17102,0.353409 0.17102,0.579992 0,0.312782 -0.0958,0.555383 -0.28745,0.727782 -0.19162,0.1724 -0.51542,0.258609 -0.97143,0.258609 h -1.37895 z m 13.56296,0.117937 c -0.0464,0 -0.0742,0.01053 -0.10256,0.03894 -0.0714,0.07141 -0.049,0.160224 0.10452,0.414438 0.17495,0.289628 0.28921,0.575166 0.37419,0.935093 0.043,0.182042 0.045,0.207523 0.0449,0.579194 -8e-5,0.347446 -0.004,0.406451 -0.0368,0.555356 -0.077,0.349933 -0.2086,0.679969 -0.39174,0.982863 -0.0498,0.08237 -0.0993,0.171625 -0.11005,0.198354 -0.0264,0.06568 -0.005,0.138446 0.0567,0.190063 0.10023,0.08434 0.18209,0.042 0.31265,-0.161594 0.29006,-0.452373 0.45995,-0.973925 0.5115,-1.570402 0.0446,-0.516841 -0.10189,-1.184138 -0.3725,-1.696011 -0.18996,-0.359344 -0.27959,-0.466288 -0.39081,-0.466288 z m -0.6893,0.714068 c -0.0908,0 -0.1154,0.0111 -0.14307,0.06462 -0.0355,0.06864 -0.029,0.104863 0.0495,0.276558 0.1561,0.341316 0.19118,0.46089 0.21305,0.725942 0.0312,0.377827 -0.0214,0.681694 -0.17578,1.014864 -0.0433,0.09343 -0.0831,0.202103 -0.0885,0.241488 -0.009,0.06662 -0.006,0.07554 0.0462,0.127665 0.074,0.07399 0.14691,0.07698 0.21507,0.0088 0.0885,-0.08849 0.25065,-0.46579 0.31648,-0.736312 0.022,-0.09034 0.0274,-0.184606 0.0272,-0.470032 -2.9e-4,-0.323452 -0.004,-0.370466 -0.0377,-0.499761 -0.0714,-0.272761 -0.2098,-0.58953 -0.30463,-0.697531 -0.0423,-0.04815 -0.0594,-0.0563 -0.11788,-0.0563 z"
       id="text4571"
       inkscape:connector-curvature="0" />
  </g>
</svg>
